<mxfile host="app.diagrams.net" modified="2023-10-30T09:40:23.297Z" agent="Mozilla/5.0 (Macintosh; Intel Mac OS X 10_15_7) AppleWebKit/537.36 (KHTML, like Gecko) Chrome/118.0.0.0 Safari/537.36" version="22.0.8" etag="MJpODeU_vCOcW3LJn1Gr" type="github">
  <diagram name="Page-1" id="y7Hq_c4cnk58mDoObjW7">
    <mxGraphModel>
      <root>
        <mxCell id="0" />
        <mxCell id="1" parent="0" />
      </root>
    </mxGraphModel>
  </diagram>
</mxfile>
